<svg xmlns="http://www.w3.org/2000/svg" viewBox="0 0 64 64">
  <defs>
    <linearGradient id="bg" x1="10" y1="8" x2="56" y2="58" gradientUnits="userSpaceOnUse">
      <stop stop-color="#10233d" />
      <stop offset="1" stop-color="#06111f" />
    </linearGradient>
    <linearGradient id="mark" x1="13" y1="17" x2="52" y2="49" gradientUnits="userSpaceOnUse">
      <stop stop-color="#9af0ff" />
      <stop offset="1" stop-color="#3b99ff" />
    </linearGradient>
  </defs>
  <rect width="64" height="64" rx="15" fill="url(#bg)" />
  <rect x="5" y="5" width="54" height="54" rx="12" fill="none" stroke="#62dcff" stroke-opacity=".35" stroke-width="2" />
  <path d="M12 18h24v7h-8v25h-8V25h-8z" fill="url(#mark)" />
  <path d="M38 18h14v7h-9c-4 0-7 3-7 8v2c0 5 3 8 7 8h3v-6h-6v-7h13v20H42c-9 0-15-6-15-15v-2c0-9 6-15 15-15z" fill="#f1f6fc" />
</svg>
